<?xml version="1.0" encoding="UTF-8"?>
<svg version="1.1" xmlns="http://www.w3.org/2000/svg" width="512" height="512">
<path d="M0 0 C8.60429769 0.2722835 17.20968957 0.50609135 25.81521606 0.73574829 C27.10025434 0.77016305 27.10025434 0.77016305 28.41125298 0.80527306 C65.3354934 1.78346209 102.24511103 1.30156752 139.16896057 0.50631714 C153.33512179 0.20264809 167.43224919 0.15774207 181.59646606 0.65762329 C192.46182999 1.03462421 203.32289634 1.2719753 214.19412231 1.40371704 C216.60232801 1.43615996 219.01053114 1.46879465 221.41873169 1.50161743 C225.00997633 1.55038333 228.60094957 1.59465879 232.19241333 1.62341309 C259.51420017 1.84481245 283.51259981 5.2343253 304.59646606 24.22012329 C306.77874014 26.5024337 308.8633224 28.83134214 310.90505981 31.23965454 C312.52289527 33.20534981 312.52289527 33.20534981 314.22146606 34.75527954 C316.4616824 37.14187365 317.32506808 40.23510193 318.59646606 43.22012329 C319.25646606 43.55012329 319.91646606 43.88012329 320.59646606 44.22012329 C322.085642 47.95051541 323.0684342 51.85716711 324.15896606 55.72012329 C324.63366333 57.28826782 324.63366333 57.28826782 325.11795044 58.88809204 C330.31152758 77.17036572 328.75942238 96.85007747 328.72503662 115.68999481 C328.72141883 117.93695708 328.71983689 120.18391285 328.71878052 122.43087769 C328.70834929 140.32491004 328.57445329 158.20655521 328.09646606 176.09512329 C327.60539534 194.76200254 327.47146606 213.42280913 327.47146606 232.09512329 C327.47146606 232.82013786 327.47146606 233.54515244 327.47146606 234.29213715 C327.47675199 258.10464486 327.73561215 281.91062055 328.09646606 305.72012329 C328.72300198 347.22704282 328.72300198 347.22704282 328.77371216 363.28482056 C328.78036644 365.10856771 328.79041835 366.93230683 328.80447388 368.75601196 C328.86827733 377.51807275 328.65855106 386.15495755 327.71755981 394.87246704 C327.6408757 395.58486542 327.56419159 396.29726379 327.48518372 397.03125 C325.02955845 417.39274442 315.81014756 436.31686394 300.59646606 450.22012329 C299.93646606 450.22012329 299.27646606 450.22012329 298.59646606 450.22012329 C298.59646606 450.88012329 298.59646606 451.54012329 298.59646606 452.22012329 C296.56386313 453.78847138 294.53984041 455.23474172 292.40896606 456.65762329 C291.83082153 457.05272095 291.252677 457.4478186 290.65701294 457.85488892 C269.48725893 472.23118514 244.13591225 472.82527198 219.34646606 472.53262329 C216.95324483 472.52107676 214.56001435 472.51130821 212.16677856 472.50332642 C200.72039652 472.44533751 189.28012764 472.27486522 177.837677 471.97549438 C151.91492421 471.31088578 126.01056895 471.13570331 100.08084106 471.15762329 C99.20126204 471.15831117 98.32168303 471.15899906 97.4154501 471.15970778 C83.72577327 471.17094412 70.03612237 471.19454685 56.34646606 471.22012329 C44.3716178 471.24243434 32.39677857 471.26290999 20.42191339 471.27354145 C16.11224327 471.27761161 11.80259976 471.28369363 7.49294281 471.29528809 C-9.19542912 471.33960592 -25.87834888 471.30206534 -42.56274939 470.89745903 C-44.0868099 470.86076391 -45.61093115 470.82648787 -47.13510752 470.79496956 C-71.70208054 470.2681011 -94.32749743 466.70078068 -113.40353394 450.22012329 C-114.07900269 449.68902954 -114.75447144 449.15793579 -115.45040894 448.61074829 C-132.0428125 435.20408621 -140.40611554 415.33561668 -142.82931519 394.57168579 C-143.06277087 391.30330616 -143.22262214 388.04299862 -143.32247925 384.76797485 C-143.41986532 381.70676691 -143.5488593 378.64738512 -143.67697144 375.58731079 C-144.38341443 357.94753564 -144.56719414 340.39851295 -144.00471497 322.75667 C-143.53523567 307.79939302 -143.27008496 292.84396352 -143.12228394 277.88027954 C-143.11273682 276.92139202 -143.1031897 275.9625045 -143.09335327 274.97455978 C-143.0257205 268.07728556 -142.96412155 261.17996243 -142.90353394 254.28262329 C-142.83423339 246.4401388 -142.76209285 238.59768943 -142.68478394 230.75527954 C-142.67539795 229.79110611 -142.66601196 228.82693268 -142.65634155 227.83354187 C-142.4864774 210.83993032 -142.15536893 193.85188253 -141.73373413 176.86271667 C-141.45163622 165.27055052 -141.35282884 153.69043883 -141.40353394 142.09512329 C-141.40846284 140.51520901 -141.4130325 138.93529357 -141.41723633 137.3553772 C-141.41914537 136.65690674 -141.42105442 135.95843628 -141.42302132 135.23880005 C-141.57354752 56.0807677 -141.57354752 56.0807677 -117.40353394 28.22012329 C-116.74353394 28.22012329 -116.08353394 28.22012329 -115.40353394 28.22012329 C-115.18181519 27.6490686 -114.96009644 27.07801392 -114.73165894 26.48965454 C-107.6547019 14.39638384 -88.48561965 7.89703735 -75.65353394 4.28262329 C-50.90905896 -2.16845026 -25.30191274 -0.80423355 0 0 Z M-64.40353394 47.22012329 C-65.25302612 47.48567017 -66.10251831 47.75121704 -66.97775269 48.02481079 C-79.50850808 52.4705733 -90.48500848 61.82660003 -97.05197144 73.34512329 C-103.00369849 86.00544442 -103.55782683 99.10040531 -103.50119019 112.81558228 C-103.4992665 114.17106064 -103.49780483 115.52653972 -103.49676514 116.88201904 C-103.49361478 119.79559598 -103.48735887 122.70914356 -103.47869873 125.62270927 C-103.46497653 130.29784276 -103.45923552 134.97296699 -103.45455933 139.64811707 C-103.44164772 151.3049466 -103.41755377 162.96175056 -103.39315796 174.61856079 C-103.36957169 185.98444202 -103.35149414 197.3503159 -103.34103394 208.71621704 C-103.3401894 209.51478024 -103.33934487 210.31334345 -103.33847475 211.13610554 C-103.31365724 235.86738327 -103.51917007 260.5821013 -104.08078003 285.30763245 C-104.63048262 310.19707252 -104.08246105 335.06379387 -102.95040894 359.93106079 C-102.91670197 360.73421722 -102.882995 361.53737366 -102.8482666 362.36486816 C-101.93129268 381.1860964 -97.18974114 396.49915244 -83.16525269 409.73574829 C-80.10177267 412.31695096 -76.94117507 414.34652938 -73.40353394 416.22012329 C-72.62236206 416.65324829 -71.84119019 417.08637329 -71.03634644 417.53262329 C-53.15643272 426.23936388 -30.9533608 424.691422 -11.60322189 424.02234459 C3.25275434 423.50952003 18.04116538 423.08572236 32.90273857 423.60042572 C64.35610686 424.64653353 95.84795412 424.44307918 127.31455433 424.45895523 C136.49611961 424.46366618 145.67753784 424.48124258 154.8590588 424.51001859 C162.0738231 424.53181579 169.28854638 424.54173103 176.50334316 424.54305911 C180.76366017 424.54409016 185.02383574 424.54962873 189.28411674 424.56787872 C204.60627472 424.62951361 219.86059995 424.63389633 235.11624146 423.01211548 C236.11671981 422.91244099 237.11719816 422.81276649 238.14799404 422.71007156 C249.21477443 421.33165932 258.6847097 416.79346425 267.59646606 410.22012329 C268.48334106 409.60137329 269.37021606 408.98262329 270.28396606 408.34512329 C282.93872966 396.71642161 286.5195724 381.75341163 287.59646606 365.22012329 C287.71970107 361.50675567 287.73209445 357.79850721 287.72344971 354.08332825 C287.72578969 352.50348907 287.72578969 352.50348907 287.72817695 350.89173394 C287.73213294 347.39856195 287.72901838 343.9054342 287.7258606 340.41226196 C287.72721706 337.89298986 287.72899837 335.37371795 287.73117065 332.85444641 C287.7352453 326.7429421 287.73466512 320.6314539 287.73175801 314.5199494 C287.72949154 309.54753739 287.72919683 304.57512882 287.73028183 299.60271645 C287.73043506 298.89262997 287.7305883 298.18254349 287.73074617 297.45093924 C287.73106593 296.00797762 287.73139014 294.565016 287.73171876 293.12205438 C287.73456494 279.61593433 287.73130039 266.10982109 287.7259184 252.60370217 C287.72145405 241.04314056 287.72222492 229.48258901 287.72683716 217.92202759 C287.73220318 204.46598642 287.73428729 191.00995121 287.73122489 177.55390912 C287.73090638 176.11559856 287.73059201 174.677288 287.73028183 173.23897743 C287.73012755 172.53148752 287.72997328 171.8239976 287.72981433 171.0950686 C287.72895503 166.1366573 287.7303994 161.17824981 287.73276138 156.2198391 C287.73587859 149.52948199 287.73362111 142.83914662 287.72786713 136.14879036 C287.72655202 133.70238145 287.72691225 131.25597094 287.72912979 128.80956268 C288.46909199 91.56105953 288.46909199 91.56105953 270.90896606 59.97012329 C267.37635431 56.12771336 267.37635431 56.12771336 262.59646606 55.22012329 C262.59646606 54.56012329 262.59646606 53.90012329 262.59646606 53.22012329 C245.46086776 44.37255927 227.23980362 43.92243159 208.31130981 44.34121704 C206.96322309 44.3657371 205.61512365 44.38956616 204.26701355 44.4127655 C200.72878817 44.47492044 197.19073293 44.54380576 193.65267944 44.61502075 C147.57222946 45.54159449 101.55188772 45.17447114 55.47164917 44.29299927 C44.10840657 44.0758012 32.74507807 43.86337368 21.38162231 43.65762329 C20.18294966 43.63591379 18.984277 43.61420429 17.74928093 43.59183693 C-23.78962075 41.12689071 -23.78962075 41.12689071 -64.40353394 47.22012329 Z " fill="#F0553D" transform="translate(163.40353393554688,19.779876708984375)"/>
<path d="M0 0 C2.68953435 2.16983589 5.27058426 4.41533624 7.83203125 6.734375 C8.66992188 7.45367187 9.5078125 8.17296875 10.37109375 8.9140625 C28.35042394 24.55552313 45.22416585 46.44951595 51.83203125 69.734375 C53.39836173 67.24667365 53.87304053 66.07885296 53.51953125 63.109375 C52.91269477 60.74497313 52.91269477 60.74497313 51.83203125 58.734375 C51.26835848 53.21688574 51.46004947 49.32027022 54.83203125 44.734375 C56.69758495 39.1377139 53.21812214 32.93944321 50.83203125 27.734375 C46.61373267 19.64264373 40.74776791 9.47866016 32.83203125 4.734375 C29.79600057 4.46673593 27.37870028 4.73051482 24.41015625 5.39453125 C21.26333345 5.80933971 19.62989093 5.16684083 16.83203125 3.734375 C13.81931944 0.72166319 12.99785713 -2.03706503 12.83203125 -6.265625 C14.28198555 -10.61548791 14.980878 -12.6981895 18.83203125 -15.265625 C22.60089827 -15.94761046 26.24988567 -16.01489313 29.75390625 -14.35546875 C31.39453125 -13.140625 31.39453125 -13.140625 33.83203125 -10.265625 C34.20703125 -6.953125 34.20703125 -6.953125 33.83203125 -4.265625 C34.54488281 -4.04003906 35.25773438 -3.81445312 35.9921875 -3.58203125 C44.50897589 0.36591605 51.19645547 9.81961378 55.83203125 17.734375 C56.24324219 18.40855469 56.65445313 19.08273438 57.078125 19.77734375 C59.83203125 24.39895112 59.83203125 24.39895112 59.83203125 26.734375 C60.49203125 26.734375 61.15203125 26.734375 61.83203125 26.734375 C62.17023291 28.3166756 62.50239064 29.90026875 62.83203125 31.484375 C63.01765625 32.36609375 63.20328125 33.2478125 63.39453125 34.15625 C63.83203125 36.734375 63.83203125 36.734375 63.83203125 40.734375 C65.15203125 40.734375 66.47203125 40.734375 67.83203125 40.734375 C67.83203125 39.579375 67.83203125 38.424375 67.83203125 37.234375 C69.07752171 25.98937543 76.65941925 15.08729024 83.83203125 6.734375 C84.35152344 5.99703125 84.87101563 5.2596875 85.40625 4.5 C85.87675781 3.91734375 86.34726562 3.3346875 86.83203125 2.734375 C87.49203125 2.734375 88.15203125 2.734375 88.83203125 2.734375 C88.83203125 2.074375 88.83203125 1.414375 88.83203125 0.734375 C89.92515625 0.0125 91.01828125 -0.709375 92.14453125 -1.453125 C96.068363 -4.11095092 97.07465459 -6.87218336 98.83203125 -11.265625 C101.62461799 -14.37736451 103.72943547 -15.52611376 107.83203125 -15.765625 C111.86660149 -15.56732854 113.9964645 -14.18711801 116.83203125 -11.265625 C118.58350975 -7.76266799 118.36582631 -4.08786122 117.83203125 -0.265625 C116.14453125 2.796875 116.14453125 2.796875 112.83203125 4.734375 C110.72776482 4.77065546 108.62124849 4.71909342 106.51953125 4.609375 C101.4928497 4.38735849 99.00192565 4.66033658 95.20703125 8.046875 C94.05297719 9.24880467 92.92527275 10.476878 91.83203125 11.734375 C91.28804687 12.24355469 90.7440625 12.75273437 90.18359375 13.27734375 C88.57834463 14.80654386 88.57834463 14.80654386 87.83203125 17.734375 C87.21585938 18.34023437 86.5996875 18.94609375 85.96484375 19.5703125 C80.26408532 25.35459852 77.44362711 33.77346402 75.765625 41.578125 C75.85412804 44.45187063 77.0215151 45.563535 78.83203125 47.734375 C80.67924353 53.27601183 79.97067228 57.45906046 77.83203125 62.734375 C78.06972331 64.8525829 78.06972331 64.8525829 78.83203125 66.734375 C79.16203125 67.724375 79.49203125 68.714375 79.83203125 69.734375 C80.24453125 68.66960937 80.65703125 67.60484375 81.08203125 66.5078125 C88.79830926 46.95537588 99.42283333 31.0144585 113.83203125 15.734375 C114.45335937 15.06019531 115.0746875 14.38601562 115.71484375 13.69140625 C134.17412203 -5.65607998 159.70834501 -17.97546225 186.47265625 -19.46875 C198.42042357 -19.62391581 208.85661159 -18.78466739 217.83203125 -10.265625 C225.03605789 -2.86689494 226.21992717 7.27799718 226.109375 17.203125 C225.27212086 27.86337487 221.99994064 37.77002963 217.84667969 47.55078125 C215.00647981 54.4026253 214.79378293 60.49821899 214.89453125 67.796875 C214.9705623 77.51364276 212.06314014 86.89554061 205.4765625 94.23828125 C196.10614967 102.7629086 183.65673433 106.87731259 171.83203125 110.734375 C173.5396139 111.67324162 175.24813569 112.61040023 176.95703125 113.546875 C177.9625 114.09988281 178.96796875 114.65289062 180.00390625 115.22265625 C182.88649448 116.80748543 182.88649448 116.80748543 186.20703125 118.234375 C189.71902869 120.24123068 191.46304093 122.45959426 193.83203125 125.734375 C193.83203125 126.394375 193.83203125 127.054375 193.83203125 127.734375 C194.82203125 128.064375 195.81203125 128.394375 196.83203125 128.734375 C204.10127584 139.19388368 208.47916446 155.61400846 206.42578125 168.23046875 C205.21962763 172.37303208 203.35686758 175.50878983 200.83203125 178.984375 C197.524023 183.62862304 196.64318614 188.17604993 195.5390625 193.703125 C194.44663467 198.386683 192.70397838 201.98319865 189.13671875 205.3203125 C186.12377905 207.16892974 183.36607639 207.61194215 179.89453125 208.234375 C175.23503285 209.07158969 171.68942698 209.92585968 167.83203125 212.734375 C166.4792501 214.72127231 165.1463482 216.72182718 163.83203125 218.734375 C159.94657522 222.41533334 156.15959165 224.78823839 150.66015625 224.69921875 C147.13939501 224.37431629 144.06378356 223.81317078 140.70703125 222.671875 C136.22451771 221.2101858 132.2896072 221.24851635 127.83203125 222.734375 C121.6101602 223.40677967 115.65091352 224.00210704 110.39453125 220.171875 C109.16770775 219.06824717 107.97757679 217.92215263 106.83203125 216.734375 C106.31382812 216.21617187 105.795625 215.69796875 105.26171875 215.1640625 C92.00182098 200.79338796 85.52901668 182.01601957 79.83203125 163.734375 C79.5175 164.75917969 79.20296875 165.78398437 78.87890625 166.83984375 C78.44718566 168.20070213 78.01486191 169.56136927 77.58203125 170.921875 C77.27458984 171.93217773 77.27458984 171.93217773 76.9609375 172.96289062 C75.58201245 177.2459154 74.05561419 180.46148295 70.83203125 183.734375 C66.94097931 184.86631738 64.82638895 185.16375674 61.08203125 183.546875 C56.39152213 179.76840932 55.03745815 175.71868105 53.64453125 169.984375 C53.46728516 169.28699219 53.29003906 168.58960938 53.10742188 167.87109375 C52.67402376 166.16092821 52.25189107 164.44791456 51.83203125 162.734375 C51.54537598 163.61790649 51.54537598 163.61790649 51.25292969 164.51928711 C50.3675815 167.23845668 49.47485163 169.95515014 48.58203125 172.671875 C48.28167969 173.59806641 47.98132813 174.52425781 47.671875 175.47851562 C45.06072091 183.39531259 41.85095415 190.8637215 38.08203125 198.296875 C37.6540625 199.14378906 37.22609375 199.99070312 36.78515625 200.86328125 C36.470625 201.48074219 36.15609375 202.09820312 35.83203125 202.734375 C35.17203125 202.734375 34.51203125 202.734375 33.83203125 202.734375 C33.414375 203.83458984 33.414375 203.83458984 32.98828125 204.95703125 C29.86948957 212.44845316 25.73811452 217.80753796 18.53515625 221.7109375 C13.04964525 223.78782172 7.75244158 223.10249395 2.04296875 222.3828125 C-4.00635291 221.65007776 -8.06849321 222.09877965 -13.8203125 224.0859375 C-18.66693174 225.42460438 -22.69315374 224.28381589 -27.35546875 222.546875 C-30.82486772 220.31104011 -32.6489533 218.00228693 -35.16796875 214.734375 C-35.76609375 214.156875 -36.36421875 213.579375 -36.98046875 212.984375 C-38.16796875 211.734375 -38.16796875 211.734375 -38.16796875 209.734375 C-38.96460938 209.61320313 -39.76125 209.49203125 -40.58203125 209.3671875 C-56.18310498 206.8998644 -56.18310498 206.8998644 -61.16796875 200.734375 C-63.75879174 196.19819357 -65.24252851 191.82322308 -66.04296875 186.671875 C-66.8442742 181.98059582 -68.63732698 179.18593964 -71.73046875 175.62109375 C-76.27529773 169.65600572 -75.86695387 162.88275892 -75.16796875 155.734375 C-72.44985008 140.89509439 -67.15398793 127.82931625 -54.5234375 118.85546875 C-49.54597187 115.59390098 -44.65995024 112.99098126 -39.16796875 110.734375 C-40.33972656 110.37085938 -41.51148438 110.00734375 -42.71875 109.6328125 C-57.90464377 104.81726012 -72.38262693 99.65082823 -80.16796875 84.734375 C-82.88399388 78.35481861 -83.45320154 72.79031102 -83.41796875 65.921875 C-83.62419194 55.32030002 -86.52784593 46.64560567 -90.35498047 36.85693359 C-94.74779424 25.38812792 -97.06924951 9.49273606 -92.16796875 -2.265625 C-88.09081153 -9.49453204 -81.2937055 -15.97375053 -73.16796875 -18.265625 C-47.66713324 -22.44355315 -20.90157476 -14.94810526 0 0 Z " fill="#197859" transform="translate(190.16796875,151.265625)"/>
<path d="M0 0 C28.61607593 -0.43484394 28.61607593 -0.43484394 38 2 C39.90306846 3.90306846 39.13062791 7.28804459 39.1328125 9.80859375 C39.13408646 10.53620911 39.13536041 11.26382446 39.13667297 12.01348877 C39.13852352 14.48819577 39.1319769 16.96280306 39.125 19.4375 C39.12444611 20.30355865 39.12389221 21.16961731 39.12332153 22.06192017 C39.11477049 33.70541206 38.97641742 45.34335478 38.73828125 56.984375 C38.71379913 58.18219101 38.68931702 59.38000702 38.66409302 60.61412048 C38.63926849 61.82354813 38.61444397 63.03297577 38.58886719 64.27905273 C38.16721727 84.8236223 37.87438611 105.32947853 38.375 125.875 C38.39642059 126.7667392 38.41784119 127.65847839 38.43991089 128.57723999 C38.67582068 137.95895493 39.02634293 147.33601263 39.453125 156.7109375 C39.48683197 157.51409393 39.52053894 158.31725037 39.55526733 159.14474487 C40.46424943 177.80193793 44.98603761 192.55733931 58.6875 205.8125 C73.2562899 218.20816751 93.38685713 220.23000288 111.875 220.125 C112.75317383 220.1237915 113.63134766 220.12258301 114.53613281 220.12133789 C120.337804 220.08969064 126.1317976 219.94255814 131.9296875 219.73828125 C150.12437802 219.10774194 168.2036007 219.01375709 186.40332031 219.59350586 C195.39012786 219.87840849 204.35700265 220.02936326 213.34843445 219.99914551 C225.28840014 219.97162116 237.22602889 220.17784752 249.1640625 220.37231445 C252.62159603 220.428359 256.07919294 220.47815485 259.53683853 220.52671719 C262.86317136 220.57474303 266.18938351 220.62961433 269.515625 220.68359375 C270.75701233 220.70030624 271.99839966 220.71701874 273.27740479 220.73423767 C274.41079285 220.75418289 275.54418091 220.77412811 276.71191406 220.79467773 C277.7122467 220.81022202 278.71257935 220.8257663 279.7432251 220.84178162 C282 221 282 221 283 222 C284.03973918 228.86741313 284.12097925 235.87715139 284.1875 242.8125 C284.20047119 243.49755615 284.21344238 244.1826123 284.22680664 244.88842773 C284.2354597 249.92393185 283.67673919 254.82920363 282.9855957 259.8112793 C282.89124489 260.50423851 282.79689407 261.19719772 282.69968414 261.9111557 C282.4684052 263.60770398 282.2344717 265.30389003 282 267 C238.7929961 267.5560304 195.58535637 268.10376327 152.37421036 268.12338257 C150.1098509 268.12496687 147.84550245 268.1284937 145.58114624 268.13256836 C130.08362191 268.15724583 114.59144515 268.04589983 99.097929 267.67306137 C97.5619123 267.63656936 96.02583463 267.60253755 94.48970222 267.57129288 C69.84163772 267.05304779 47.14676997 263.54176725 28 247 C27.32453125 246.46890625 26.6490625 245.9378125 25.953125 245.390625 C9.36072143 231.98396292 0.99741839 212.11549338 -1.42578125 191.3515625 C-1.65923694 188.08318287 -1.8190882 184.82287533 -1.91894531 181.54785156 C-2.01633138 178.48664362 -2.14532537 175.42726183 -2.2734375 172.3671875 C-2.98478737 154.60488839 -3.15704855 136.93436761 -2.60118103 119.16970634 C-2.16872241 105.19648285 -1.87981731 91.22496958 -1.71875 77.24609375 C-1.70920288 76.43069752 -1.69965576 75.61530128 -1.68981934 74.77519608 C-1.61299814 68.15381163 -1.54223857 61.53236606 -1.47393799 54.91088867 C-1.41401646 49.10590369 -1.3508648 43.30097117 -1.28125 37.49609375 C-1.27186401 36.71209576 -1.26247803 35.92809776 -1.25280762 35.12034225 C-1.1062006 23.39724423 -0.76951367 11.70053014 0 0 Z " fill="#187A5C" transform="translate(22,223)"/>
<path d="M0 0 C0.64791504 0.24105469 1.29583008 0.48210937 1.96337891 0.73046875 C19.44147045 7.3059538 34.39291077 18.37886987 48 31 C48.96421875 31.89332031 49.9284375 32.78664062 50.921875 33.70703125 C57.51144473 40.06391843 63.21094315 46.91719108 68.66699219 54.24462891 C69.98037019 55.97415049 71.34529829 57.64867655 72.7265625 59.32421875 C73.56936374 60.40235382 74.41058208 61.48172865 75.25 62.5625 C75.99765625 63.49191406 76.7453125 64.42132813 77.515625 65.37890625 C79.11117784 69.27121542 79.01875387 70.83243734 78.58569336 74.91918945 C77.97981553 81.62183299 77.96690123 88.19152242 78.11328125 94.9140625 C78.14538844 97.32810541 78.17594105 99.74216941 78.20507812 102.15625 C78.25448033 105.90000336 78.31289902 109.64261177 78.39770508 113.38574219 C78.47686996 117.04119853 78.51696746 120.69544062 78.55078125 124.3515625 C78.6019384 126.00981552 78.6019384 126.00981552 78.65412903 127.7015686 C78.68251867 135.86434916 76.47299121 141.22861406 72 148 C71.60941406 148.59781784 71.21882813 149.19563568 70.81640625 149.81156921 C62.81198791 161.46950888 53.01206761 174.38269679 38.84375 178.5234375 C29.09940185 180.15641892 18.76521227 180.63192855 10.04296875 175.484375 C9.03169922 174.74960937 9.03169922 174.74960937 8 174 C7.16597656 173.39542969 6.33195312 172.79085937 5.47265625 172.16796875 C2.8086655 169.83224227 1.12829042 167.55862256 -0.75 164.5625 C-1.34296875 163.63566406 -1.9359375 162.70882812 -2.546875 161.75390625 C-6.10723308 155.00645344 -6.00374431 146.4503362 -4.3515625 139.125 C1.58707659 121.25832514 15.93022675 110.4230454 32 102 C32 101.67 32 101.34 32 101 C31.01644531 100.85304688 30.03289062 100.70609375 29.01953125 100.5546875 C8.87362355 97.36986556 -16.02377582 93.0182911 -30 77 C-35.05252125 69.97663713 -36.92012121 62.99831036 -37.23291016 54.44384766 C-37.60875701 44.67413527 -40.16066783 36.68078158 -43.99609375 27.65625 C-46.67094319 20.79634905 -47.01352058 13.2542536 -46 6 C-43.43973373 1.46742005 -40.4468065 -2.80006035 -35.328125 -4.58203125 C-22.86532307 -6.81948059 -11.58621234 -4.5141831 0 0 Z " fill="#3C8E58" transform="translate(163,159)"/>
<path d="M0 0 C2.68953435 2.16983589 5.27058426 4.41533624 7.83203125 6.734375 C8.66992188 7.45367187 9.5078125 8.17296875 10.37109375 8.9140625 C29.41233606 25.4793538 44.99535412 47.57579102 52.83203125 71.734375 C52.51953125 74.734375 52.51953125 74.734375 51.83203125 76.734375 C48.91165435 73.11550249 46.08028124 69.43882309 43.26953125 65.734375 C23.02507939 39.31885052 -0.39311024 18.08557546 -32.16796875 6.734375 C-33.12832031 6.37472656 -34.08867187 6.01507813 -35.078125 5.64453125 C-40.66556425 3.81576154 -46.08218682 3.44390618 -51.91796875 3.359375 C-52.98241211 3.33822632 -52.98241211 3.33822632 -54.06835938 3.31665039 C-59.1222663 3.3634239 -62.67756399 4.38839047 -67.16796875 6.734375 C-72.49154862 12.47823749 -72.58607449 17.04004644 -72.453125 24.640625 C-72.08890447 32.44482772 -69.18004678 39.51483538 -65.98046875 46.546875 C-64.15754788 50.88514405 -63.7966843 55.01878271 -63.60546875 59.671875 C-63.07705436 72.2220827 -60.52061246 80.49950819 -51.4609375 89.4140625 C-36.35456226 102.11789876 -11.06512435 105.64802007 7.83203125 108.734375 C4.83203125 110.734375 4.83203125 110.734375 1.6796875 112.51171875 C-13.11464844 120.87878135 -23.96814025 130.07392301 -30.60546875 146.234375 C-32.37575533 157.24949148 -31.33632568 166.42917143 -24.87109375 175.65625 C-20.49993711 180.98986314 -13.96438554 185.03740707 -7.07788086 186.03808594 C-4.82807631 186.17216189 -2.60901762 186.20195733 -0.35546875 186.171875 C0.43915771 186.16430176 1.23378418 186.15672852 2.05249023 186.14892578 C8.32898943 185.97317097 13.34873664 184.91309652 18.83203125 181.734375 C19.58484375 181.321875 20.33765625 180.909375 21.11328125 180.484375 C34.02564183 172.70158232 43.44872548 158.15990843 49.83203125 144.734375 C53.13667604 149.69134219 53.08777702 154.87719156 52.83203125 160.734375 C51.74633958 165.49168951 50.22562737 169.96862172 48.48242188 174.52026367 C47.70455521 176.55334655 46.96493235 178.59737006 46.23046875 180.64648438 C43.73047994 187.49553972 40.94137868 193.67272194 36.83203125 199.734375 C36.50203125 200.724375 36.17203125 201.714375 35.83203125 202.734375 C35.17203125 202.734375 34.51203125 202.734375 33.83203125 202.734375 C33.414375 203.83458984 33.414375 203.83458984 32.98828125 204.95703125 C29.86948957 212.44845316 25.73811452 217.80753796 18.53515625 221.7109375 C13.04964525 223.78782172 7.75244158 223.10249395 2.04296875 222.3828125 C-4.00635291 221.65007776 -8.06849321 222.09877965 -13.8203125 224.0859375 C-18.66693174 225.42460438 -22.69315374 224.28381589 -27.35546875 222.546875 C-30.82486772 220.31104011 -32.6489533 218.00228693 -35.16796875 214.734375 C-35.76609375 214.156875 -36.36421875 213.579375 -36.98046875 212.984375 C-38.16796875 211.734375 -38.16796875 211.734375 -38.16796875 209.734375 C-38.96460938 209.61320313 -39.76125 209.49203125 -40.58203125 209.3671875 C-56.18310498 206.8998644 -56.18310498 206.8998644 -61.16796875 200.734375 C-63.75879174 196.19819357 -65.24252851 191.82322308 -66.04296875 186.671875 C-66.8442742 181.98059582 -68.63732698 179.18593964 -71.73046875 175.62109375 C-76.27529773 169.65600572 -75.86695387 162.88275892 -75.16796875 155.734375 C-72.44985008 140.89509439 -67.15398793 127.82931625 -54.5234375 118.85546875 C-49.54597187 115.59390098 -44.65995024 112.99098126 -39.16796875 110.734375 C-40.33972656 110.37085938 -41.51148438 110.00734375 -42.71875 109.6328125 C-57.90464377 104.81726012 -72.38262693 99.65082823 -80.16796875 84.734375 C-82.88399388 78.35481861 -83.45320154 72.79031102 -83.41796875 65.921875 C-83.62419194 55.32030002 -86.52784593 46.64560567 -90.35498047 36.85693359 C-94.74779424 25.38812792 -97.06924951 9.49273606 -92.16796875 -2.265625 C-88.09081153 -9.49453204 -81.2937055 -15.97375053 -73.16796875 -18.265625 C-47.66713324 -22.44355315 -20.90157476 -14.94810526 0 0 Z " fill="#F15B39" transform="translate(190.16796875,151.265625)"/>
<path d="M0 0 C7.06043842 5.96409705 10.61476615 12.91856798 11.5 22.125 C12.59854639 35.85682992 8.82243271 48.44180168 3.51464844 60.94140625 C0.67444856 67.7932503 0.46175168 73.88884399 0.5625 81.1875 C0.63853105 90.90426776 -2.26889111 100.28616561 -8.85546875 107.62890625 C-18.22588158 116.1535336 -30.67529692 120.26793759 -42.5 124.125 C-40.79241735 125.06386662 -39.08389556 126.00102523 -37.375 126.9375 C-36.36953125 127.49050781 -35.3640625 128.04351562 -34.328125 128.61328125 C-31.44553677 130.19811043 -31.44553677 130.19811043 -28.125 131.625 C-24.61300256 133.63185568 -22.86899032 135.85021926 -20.5 139.125 C-20.5 139.785 -20.5 140.445 -20.5 141.125 C-19.51 141.455 -18.52 141.785 -17.5 142.125 C-10.23075541 152.58450868 -5.85286679 169.00463346 -7.90625 181.62109375 C-9.11240362 185.76365708 -10.97516367 188.89941483 -13.5 192.375 C-16.80800825 197.01924804 -17.68884511 201.56667493 -18.79296875 207.09375 C-19.88539658 211.777308 -21.62805287 215.37382365 -25.1953125 218.7109375 C-28.2082522 220.55955474 -30.96595486 221.00256715 -34.4375 221.625 C-39.0969984 222.46221469 -42.64260427 223.31648468 -46.5 226.125 C-47.85278115 228.11189731 -49.18568305 230.11245218 -50.5 232.125 C-54.38545603 235.80595834 -58.1724396 238.17886339 -63.671875 238.08984375 C-67.19263624 237.76494129 -70.26824769 237.20379578 -73.625 236.0625 C-78.10751354 234.6008108 -82.04242405 234.63914135 -86.5 236.125 C-92.72187105 236.79740467 -98.68111773 237.39273204 -103.9375 233.5625 C-105.1643235 232.45887217 -106.35445446 231.31277763 -107.5 230.125 C-108.01820313 229.60679687 -108.53640625 229.08859375 -109.0703125 228.5546875 C-121.85256689 214.70166834 -135.53429097 189.34878952 -135.78125 170.08984375 C-135.63181083 166.38804469 -135.17708593 162.76962658 -134.5 159.125 C-130.4739992 160.46700027 -129.7296282 162.94548958 -127.875 166.5 C-124.12264263 173.36775404 -119.73858786 179.28852983 -114.5 185.125 C-113.8915625 185.80433594 -113.283125 186.48367188 -112.65625 187.18359375 C-104.47964122 195.82478257 -94.84820164 200.01259533 -82.875 200.5 C-72.45403059 200.02973965 -64.66853112 195.7583669 -57.67578125 188.13671875 C-51.55061365 180.49879789 -50.71215472 172.69169272 -51.5 163.125 C-53.03278198 155.02315237 -57.47599257 148.14900743 -63.25 142.375 C-65.5 140.125 -65.5 140.125 -66.5625 137.375 C-66.871875 136.6325 -67.18125 135.89 -67.5 135.125 C-68.06074219 134.99351562 -68.62148438 134.86203125 -69.19921875 134.7265625 C-72.39253102 133.89163875 -74.56236308 132.15084165 -77.25 130.25 C-81.92655086 127.05206448 -86.09990724 124.786567 -91.5 123.125 C-88.64485425 120.26985425 -85.40574211 120.27509121 -81.5625 119.6875 C-74.72407501 118.55667506 -68.13898423 117.14202109 -61.5 115.125 C-60.24445313 114.76535156 -58.98890625 114.40570313 -57.6953125 114.03515625 C-44.6214998 110.21403594 -31.48890601 105.806293 -23.85546875 93.796875 C-20.29141843 86.77148473 -19.47495544 79.21196003 -19.25 71.4375 C-18.86388831 63.62751358 -16.11280503 57.16285702 -13.09375 50.05859375 C-9.96998244 42.61263757 -9.76193232 35.21792076 -11.1875 27.3125 C-13.1053442 22.65487836 -15.49957696 19.96313345 -20.17578125 18.00390625 C-23.98090013 16.99785249 -27.5336016 16.83067949 -31.4375 16.875 C-32.45360352 16.86339844 -32.45360352 16.86339844 -33.49023438 16.8515625 C-38.16180251 16.86947839 -42.07414081 17.68672193 -46.5 19.125 C-47.61117187 19.44597656 -48.72234375 19.76695312 -49.8671875 20.09765625 C-70.99549385 26.66201869 -88.62110502 38.87810084 -104.5 54.125 C-105.39074219 54.96417969 -106.28148437 55.80335938 -107.19921875 56.66796875 C-116.44849541 65.60764619 -123.89303826 75.57727494 -131.125 86.19921875 C-132.5 88.125 -132.5 88.125 -134.5 90.125 C-134.86087923 84.35845065 -133.7884104 80.32894541 -131.5 75.0625 C-131.18458252 74.32225586 -130.86916504 73.58201172 -130.54418945 72.81933594 C-123.27196921 56.15524611 -112.92187635 42.2976491 -100.5 29.125 C-99.87867188 28.45082031 -99.25734375 27.77664062 -98.6171875 27.08203125 C-77.77713888 5.23921879 -28.99352895 -20.7172914 0 0 Z " fill="#F15C3A" transform="translate(404.5,137.875)"/>
<path d="M0 0 C1.30506458 2.61012916 1.11290405 4.49466281 1.09765625 7.41845703 C1.09439331 8.5701236 1.09113037 9.72179016 1.08776855 10.90835571 C1.07526062 12.81383682 1.07526062 12.81383682 1.0625 14.7578125 C1.05773015 16.10419526 1.05355344 17.45058023 1.04992676 18.79696655 C1.0415914 21.70604718 1.03086646 24.61510446 1.01831055 27.52416992 C0.9855368 35.38327216 0.97371099 43.24239795 0.96875 51.1015625 C0.96820114 51.91628777 0.96765228 52.73101303 0.96708679 53.57042694 C0.96072894 71.12117299 1.18738696 88.66610092 1.46416855 106.21434021 C1.57004871 112.96835121 1.67002709 119.72245495 1.76953125 126.4765625 C1.78007349 127.19199219 1.79061573 127.90742188 1.80147743 128.64453125 C1.98392927 141.11752196 2.13785222 153.59031496 2.17724609 166.06469727 C2.18390037 167.88844442 2.19395228 169.71218354 2.20800781 171.53588867 C2.27181126 180.29794945 2.062085 188.93483426 1.12109375 197.65234375 C1.00606758 198.72094131 1.00606758 198.72094131 0.88871765 199.81112671 C-1.56690762 220.17262113 -10.7863185 239.09674065 -26 253 C-26.66 253 -27.32 253 -28 253 C-28 253.66 -28 254.32 -28 255 C-30.03260293 256.56834809 -32.05662566 258.01461843 -34.1875 259.4375 C-34.76564453 259.83259766 -35.34378906 260.22769531 -35.93945312 260.63476562 C-57.10504739 275.00823698 -82.46407186 275.61252398 -107.25 275.3125 C-109.88052505 275.29545751 -112.51105977 275.27985157 -115.14160156 275.265625 C-139.09773973 275.11618593 -163.05222796 274.63644065 -187 274 C-186.85780029 272.95158936 -186.71560059 271.90317871 -186.5690918 270.82299805 C-185.59520669 263.47255866 -184.6758488 256.24200987 -184.8125 248.8125 C-184.8134668 247.79639648 -184.8134668 247.79639648 -184.81445312 246.75976562 C-184.8521355 242.22531998 -185.15417694 237.72992989 -185.51049805 233.2097168 C-185.60179489 232.04506393 -185.69309174 230.88041107 -185.78715515 229.6804657 C-185.85739395 228.79591202 -185.92763275 227.91135834 -186 227 C-185.05548981 226.99413376 -184.11097961 226.98826752 -183.1378479 226.98222351 C-174.1100807 226.9242881 -165.08253826 226.85118043 -156.05500221 226.76428509 C-151.41705784 226.72010097 -146.77919096 226.68074109 -142.14111328 226.65356445 C-116.60527007 226.56955112 -116.60527007 226.56955112 -91.1484375 224.76953125 C-90.16888092 224.67121506 -89.18932434 224.57289886 -88.18008423 224.47160339 C-77.17889922 223.08368794 -65.21800768 218.44275495 -57.37890625 210.3203125 C-56 209 -56 209 -54 209 C-53.73058594 208.42765625 -53.46117187 207.8553125 -53.18359375 207.265625 C-51.96865312 204.93999607 -50.57615924 202.89146193 -49.0625 200.75 C-38.05364331 184.38403543 -39.79942163 163.62015039 -39.4375 144.75 C-39.39422281 142.63671171 -39.35060588 140.52343034 -39.30664062 138.41015625 C-39.20050794 133.27350905 -39.09898027 128.1367898 -39 123 C-38.67 123 -38.34 123 -38 123 C-38 127.29 -38 131.58 -38 136 C-35.97875 135.979375 -33.9575 135.95875 -31.875 135.9375 C-21.57039048 135.88884297 -11.28830392 136.48460991 -1 137 C-1.03225677 136.28050171 -1.06451355 135.56100342 -1.0977478 134.81970215 C-2.24212738 107.89073553 -1.96810273 80.99068408 -1.66339111 54.04547119 C-1.61147202 49.25067284 -1.56831426 44.45581026 -1.52509499 39.66092682 C-1.48247138 35.03546093 -1.4350234 30.41005479 -1.38599777 25.78465271 C-1.36310826 23.5805346 -1.34159789 21.37640172 -1.32149124 19.17225647 C-1.29290538 16.12973477 -1.25797172 13.08735401 -1.22119141 10.04492188 C-1.21020164 8.68339241 -1.21020164 8.68339241 -1.19898987 7.2943573 C-1.11435938 1.11435938 -1.11435938 1.11435938 0 0 Z " fill="#BAA842" transform="translate(490,217)"/>
<path d="M0 0 C1.12814621 0.03172302 1.12814621 0.03172302 2.27908325 0.06408691 C4.44541235 0.12792178 6.61135553 0.19899045 8.77734375 0.2734375 C10.66634399 0.33797119 10.66634399 0.33797119 12.59350586 0.40380859 C15.81473536 0.60920193 18.89265632 1.02953287 22.0625 1.625 C22.0625 1.955 22.0625 2.285 22.0625 2.625 C12.66021406 2.7420409 3.43354106 2.50995497 -5.9375 1.625 C-5.64875 2.5325 -5.36 3.44 -5.0625 4.375 C-1.54903652 17.09875702 -1.76105052 29.53593412 -1.9375 42.625 C-0.03170166 42.61629883 -0.03170166 42.61629883 1.91259766 42.60742188 C17.09316207 42.56072516 32.26067499 42.80938982 47.4375 43.125 C49.84244388 43.17337811 52.24739179 43.22155623 54.65234375 43.26953125 C60.45577747 43.38572551 66.2591573 43.50434959 72.0625 43.625 C72.0625 43.955 72.0625 44.285 72.0625 44.625 C70.33054382 44.62166908 70.33054382 44.62166908 68.56359863 44.61827087 C57.61977239 44.5978958 46.67595006 44.58295918 35.73210907 44.57318783 C30.10736798 44.56799523 24.48264235 44.56096432 18.85791016 44.54956055 C13.41788076 44.53860174 7.97786613 44.53269596 2.53782654 44.53012276 C0.47447986 44.52829171 -1.58886612 44.52471681 -3.65220642 44.51926994 C-27.58629951 44.12909124 -27.58629951 44.12909124 -50.9375 48.625 C-51.78699219 48.89054687 -52.63648437 49.15609375 -53.51171875 49.4296875 C-67.14734286 54.26744425 -77.08749446 64.10468931 -83.65234375 76.76171875 C-88.50395955 87.57094179 -89.09438064 98.79386263 -89.05102539 110.46899414 C-89.05117142 111.51394043 -89.05131744 112.55888672 -89.0514679 113.63549805 C-89.05077592 117.06040586 -89.04301723 120.48525804 -89.03515625 123.91015625 C-89.03328953 126.29625926 -89.03186682 128.68236266 -89.03086853 131.06846619 C-89.02706338 137.32702709 -89.01725029 143.58556453 -89.00616455 149.84411621 C-88.99590727 156.2391732 -88.99136168 162.63423401 -88.98632812 169.02929688 C-88.97562614 181.56120789 -88.95876806 194.09310269 -88.9375 206.625 C-89.86881744 206.48542877 -90.80013489 206.34585754 -91.75967407 206.20205688 C-92.99736542 206.02016815 -94.23505676 205.83827942 -95.51025391 205.65087891 C-96.73032135 205.47005768 -97.95038879 205.28923645 -99.20742798 205.10293579 C-104.89981252 204.37356802 -110.5803714 204.16495334 -116.3125 204 C-118.00632812 203.94199219 -118.00632812 203.94199219 -119.734375 203.8828125 C-122.46860468 203.79012675 -125.20285341 203.70423711 -127.9375 203.625 C-128.4325 205.605 -128.4325 205.605 -128.9375 207.625 C-128.90720703 206.42528564 -128.87691406 205.22557129 -128.84570312 203.98950195 C-128.33463971 183.49233725 -127.84832564 163.00449394 -127.9375 142.5 C-128.25331777 56.6537121 -128.25331777 56.6537121 -103.9375 28.625 C-103.2775 28.625 -102.6175 28.625 -101.9375 28.625 C-101.71578125 28.05394531 -101.4940625 27.48289062 -101.265625 26.89453125 C-94.18866796 14.80126054 -75.01958572 8.30191406 -62.1875 4.6875 C-41.78993594 -0.63030069 -20.91453156 -0.59777114 0 0 Z " fill="#D070A0" transform="translate(149.9375,19.375)"/>
<path d="M0 0 C28.61607593 -0.43484394 28.61607593 -0.43484394 38 2 C39.90306846 3.90306846 39.13062791 7.28804459 39.1328125 9.80859375 C39.13408646 10.53620911 39.13536041 11.26382446 39.13667297 12.01348877 C39.13852352 14.48819577 39.1319769 16.96280306 39.125 19.4375 C39.12444611 20.30355865 39.12389221 21.16961731 39.12332153 22.06192017 C39.11477049 33.70541206 38.97641742 45.34335478 38.73828125 56.984375 C38.71379913 58.18219101 38.68931702 59.38000702 38.66409302 60.61412048 C38.63926849 61.82354813 38.61444397 63.03297577 38.58886719 64.27905273 C38.16721727 84.8236223 37.87438611 105.32947853 38.375 125.875 C38.39642059 126.7667392 38.41784119 127.65847839 38.43991089 128.57723999 C38.67582068 137.95895493 39.02634293 147.33601263 39.453125 156.7109375 C39.48683197 157.51409393 39.52053894 158.31725037 39.55526733 159.14474487 C40.38835491 176.24417496 43.97635534 191.1470366 56.5234375 203.48046875 C58.64578437 205.37183465 60.78887527 207.21369784 63 209 C62.319375 209.639375 61.63875 210.27875 60.9375 210.9375 C57.76589292 214.07286014 55.18888514 217.62131577 52.55078125 221.20703125 C52.03902344 221.79871094 51.52726562 222.39039063 51 223 C50.34 223 49.68 223 49 223 C48.75507812 223.56203125 48.51015625 224.1240625 48.2578125 224.703125 C44.00794574 232.46375125 36.29389945 238.86044686 30 245 C30.99 245 31.98 245 33 245 C33.33 246.98 33.66 248.96 34 251 C17.88339888 241.71818784 6.88963671 225.45968222 1.71875 207.83203125 C-0.61275643 199.14059899 -1.64452697 190.5479777 -1.91894531 181.54785156 C-2.01633138 178.48664362 -2.14532537 175.42726183 -2.2734375 172.3671875 C-2.98478737 154.60488839 -3.15704855 136.93436761 -2.60118103 119.16970634 C-2.16872241 105.19648285 -1.87981731 91.22496958 -1.71875 77.24609375 C-1.70920288 76.43069752 -1.69965576 75.61530128 -1.68981934 74.77519608 C-1.61299814 68.15381163 -1.54223857 61.53236606 -1.47393799 54.91088867 C-1.41401646 49.10590369 -1.3508648 43.30097117 -1.28125 37.49609375 C-1.27186401 36.71209576 -1.26247803 35.92809776 -1.25280762 35.12034225 C-1.1062006 23.39724423 -0.76951367 11.70053014 0 0 Z " fill="#2080B9" transform="translate(22,223)"/>
<path d="M0 0 C1.30506458 2.61012916 1.11290405 4.49466281 1.09765625 7.41845703 C1.09439331 8.5701236 1.09113037 9.72179016 1.08776855 10.90835571 C1.07942993 12.17867645 1.07109131 13.44899719 1.0625 14.7578125 C1.05773015 16.10419526 1.05355344 17.45058023 1.04992676 18.79696655 C1.0415914 21.70604718 1.03086646 24.61510446 1.01831055 27.52416992 C0.9855368 35.38327216 0.97371099 43.24239795 0.96875 51.1015625 C0.96820114 51.91628777 0.96765228 52.73101303 0.96708679 53.57042694 C0.96072894 71.12117299 1.18738696 88.66610092 1.46416855 106.21434021 C1.57004871 112.96835121 1.67002709 119.72245495 1.76953125 126.4765625 C1.78007349 127.19199219 1.79061573 127.90742188 1.80147743 128.64453125 C1.98392927 141.11752196 2.13785222 153.59031496 2.17724609 166.06469727 C2.18390037 167.88844442 2.19395228 169.71218354 2.20800781 171.53588867 C2.27181126 180.29794945 2.062085 188.93483426 1.12109375 197.65234375 C1.04440964 198.36474213 0.96772552 199.0771405 0.88871765 199.81112671 C-1.56690762 220.17262113 -10.7863185 239.09674065 -26 253 C-26.66 253 -27.32 253 -28 253 C-28 253.66 -28 254.32 -28 255 C-30.03260293 256.56834809 -32.05662566 258.01461843 -34.1875 259.4375 C-34.76564453 259.83259766 -35.34378906 260.22769531 -35.93945312 260.63476562 C-37.61532557 261.77284398 -39.30746382 262.88685487 -41 264 C-42.32451172 264.88365234 -42.32451172 264.88365234 -43.67578125 265.78515625 C-46 267 -46 267 -50 267 C-50.4228125 265.84113281 -50.845625 264.68226563 -51.28125 263.48828125 C-52.85413552 259.30341353 -54.60446986 255.23549042 -56.5 251.1875 C-57.00080078 250.11737671 -57.00080078 250.11737671 -57.51171875 249.02563477 C-61.80640087 240.05544696 -66.89448334 231.52660816 -72 223 C-74.64 223.33 -77.28 223.66 -80 224 C-77.42975604 222.28650402 -74.893357 220.96109945 -72.11230469 219.63891602 C-66.00896606 216.72566799 -60.96799321 213.6292664 -56 209 C-55.34 209 -54.68 209 -54 209 C-53.73058594 208.42765625 -53.46117187 207.8553125 -53.18359375 207.265625 C-51.96865312 204.93999607 -50.57615924 202.89146193 -49.0625 200.75 C-38.05364331 184.38403543 -39.79942163 163.62015039 -39.4375 144.75 C-39.39422281 142.63671171 -39.35060588 140.52343034 -39.30664062 138.41015625 C-39.20050794 133.27350905 -39.09898027 128.1367898 -39 123 C-38.67 123 -38.34 123 -38 123 C-38 127.29 -38 131.58 -38 136 C-35.97875 135.979375 -33.9575 135.95875 -31.875 135.9375 C-21.57039048 135.88884297 -11.28830392 136.48460991 -1 137 C-1.03225677 136.28050171 -1.06451355 135.56100342 -1.0977478 134.81970215 C-2.24212738 107.89073553 -1.96810273 80.99068408 -1.66339111 54.04547119 C-1.61147202 49.25067284 -1.56831426 44.45581026 -1.52509499 39.66092682 C-1.48247138 35.03546093 -1.4350234 30.41005479 -1.38599777 25.78465271 C-1.36310826 23.5805346 -1.34159789 21.37640172 -1.32149124 19.17225647 C-1.29290538 16.12973477 -1.25797172 13.08735401 -1.22119141 10.04492188 C-1.2138649 9.13723557 -1.20653839 8.22954926 -1.19898987 7.2943573 C-1.11435938 1.11435938 -1.11435938 1.11435938 0 0 Z " fill="#F3B746" transform="translate(490,217)"/>
<path d="M0 0 C2.84755931 1.34853926 3.87828466 2.49746395 6 5 C6.375 8.3125 6.375 8.3125 6 11 C7.06927734 11.33837891 7.06927734 11.33837891 8.16015625 11.68359375 C16.67694464 15.63154105 23.36442422 25.08523878 28 33 C28.41121094 33.67417969 28.82242188 34.34835938 29.24609375 35.04296875 C32 39.66457612 32 39.66457612 32 42 C32.66 42 33.32 42 34 42 C34.33820166 43.5823006 34.67035939 45.16589375 35 46.75 C35.185625 47.63171875 35.37125 48.5134375 35.5625 49.421875 C36 52 36 52 36 56 C37.32 56 38.64 56 40 56 C40 54.845 40 53.69 40 52.5 C41.24549046 41.25500043 48.827388 30.35291524 56 22 C56.51949219 21.26265625 57.03898437 20.5253125 57.57421875 19.765625 C58.27998047 18.89164063 58.27998047 18.89164063 59 18 C59.66 18 60.32 18 61 18 C61 17.34 61 16.68 61 16 C62.093125 15.278125 63.18625 14.55625 64.3125 13.8125 C68.23633175 11.15467408 69.24262334 8.39344164 71 4 C73.79258674 0.88826049 75.89740422 -0.26048876 80 -0.5 C84.03457024 -0.30170354 86.16443325 1.07850699 89 4 C90.7514785 7.50295701 90.53379506 11.17776378 90 15 C88.3125 18.0625 88.3125 18.0625 85 20 C82.89573357 20.03628046 80.78921724 19.98471842 78.6875 19.875 C73.66081845 19.65298349 71.1698944 19.92596158 67.375 23.3125 C66.22094594 24.51442967 65.0932415 25.742503 64 27 C63.45601563 27.50917969 62.91203125 28.01835937 62.3515625 28.54296875 C60.74631338 30.07216886 60.74631338 30.07216886 60 33 C59.38382812 33.60585937 58.76765625 34.21171875 58.1328125 34.8359375 C52.43205407 40.62022352 49.61159586 49.03908902 47.93359375 56.84375 C48.02209679 59.71749563 49.18948385 60.82916 51 63 C52.84721228 68.54163683 52.13864103 72.72468546 50 78 C50.30176468 79.3408307 50.64406559 80.67252134 51 82 C51.36162876 84.45794546 51.69487348 86.91014987 52 89.375 C52.165 90.66148437 52.33 91.94796875 52.5 93.2734375 C53.82493248 105.07738139 54.23904818 116.88209764 54.25 128.75 C54.25100708 129.51658936 54.25201416 130.28317871 54.25305176 131.07299805 C54.24267559 142.92502391 53.74342613 154.6902926 52.75 166.5 C52.66812439 167.54915588 52.66812439 167.54915588 52.58459473 168.61950684 C51.77469459 178.70655345 50.24740102 188.28905338 45.1875 197.1875 C42.12115781 199.72818353 39.94918028 200 36 200 C32.22143657 198.36834761 30.24356512 196.38919941 28 193 C20.66922853 173.16367654 21.70941921 150.23768302 21.6875 129.4375 C21.68400543 128.36531219 21.68051086 127.29312439 21.6769104 126.18844604 C21.62268132 96.15328124 21.62268132 96.15328124 25.25 81.625 C26.0878563 77.57536122 25.76193022 77.38832734 24 74 C23.24674642 68.53157465 23.67093784 64.52752454 27 60 C28.8655537 54.4033389 25.38609089 48.20506821 23 43 C18.78170142 34.90826873 12.91573666 24.74428516 5 20 C1.96396932 19.73236093 -0.45333097 19.99613982 -3.421875 20.66015625 C-6.5686978 21.07496471 -8.20214032 20.43246583 -11 19 C-14.01271181 15.98728819 -14.83417412 13.22855997 -15 9 C-12.24952818 0.74858453 -8.3480093 -1.37713759 0 0 Z " fill="#0A2237" transform="translate(218,136)"/>
<path d="M0 0 C10.00251642 0.25925137 19.99043089 0.43986951 29.99639893 0.40563965 C41.86939533 0.37762369 53.74025519 0.58543817 65.61132812 0.77880859 C69.06886166 0.83485314 72.52645856 0.88464899 75.98410416 0.93321133 C79.31043699 0.98123717 82.63664913 1.03610847 85.96289062 1.09008789 C87.82497162 1.11515663 87.82497162 1.11515663 89.72467041 1.14073181 C90.85805847 1.16067703 91.99144653 1.18062225 93.15917969 1.20117188 C94.65967865 1.2244883 94.65967865 1.2244883 96.19049072 1.24827576 C98.44726562 1.40649414 98.44726562 1.40649414 99.44726562 2.40649414 C100.48700481 9.27390727 100.56824488 16.28364553 100.63476562 23.21899414 C100.64773682 23.90405029 100.66070801 24.58910645 100.67407227 25.29492188 C100.68272533 30.33042599 100.12400482 35.23569777 99.43286133 40.21777344 C99.29133511 41.25721226 99.29133511 41.25721226 99.14694977 42.31764984 C98.91567082 44.01419812 98.68173732 45.71038417 98.44726562 47.40649414 C84.84319851 47.58156471 71.23903162 47.74762336 57.63476562 47.90649414 C56.61813717 47.91837139 55.60150871 47.93024864 54.55407333 47.94248581 C24.45541937 48.29166228 -5.63950247 48.50069163 -35.74023438 48.46899414 C-36.55917301 48.46813812 -37.37811165 48.4672821 -38.22186661 48.46640015 C-47.9988483 48.4553877 -57.77578996 48.43593131 -67.55273438 48.40649414 C-67.55273438 48.07649414 -67.55273438 47.74649414 -67.55273438 47.40649414 C-51.38273437 47.40649414 -35.21273437 47.40649414 -18.55273438 47.40649414 C-18.05773437 42.45649414 -18.05773437 42.45649414 -17.55273438 37.40649414 C-17.22273438 36.08649414 -16.89273438 34.76649414 -16.55273438 33.40649414 C-16.40321735 30.93670757 -16.29706968 28.48770902 -16.23632812 26.01586914 C-16.19822021 24.72648437 -16.1601123 23.43709961 -16.12084961 22.10864258 C-16.07774658 20.47443359 -16.03464355 18.84022461 -15.99023438 17.15649414 C-15.84585938 11.95899414 -15.70148438 6.76149414 -15.55273438 1.40649414 C-30.07273438 1.40649414 -44.59273437 1.40649414 -59.55273438 1.40649414 C-59.55273438 1.07649414 -59.55273438 0.74649414 -59.55273438 0.40649414 C-39.66755388 -0.72009432 -19.90183849 -0.51826861 0 0 Z " fill="#3D8F5A" transform="translate(205.552734375,442.593505859375)"/>
<path d="M0 0 C7.06043842 5.96409705 10.61476615 12.91856798 11.5 22.125 C12.59854639 35.85682992 8.82243271 48.44180168 3.51464844 60.94140625 C0.67444856 67.7932503 0.46175168 73.88884399 0.5625 81.1875 C0.63853105 90.90426776 -2.26889111 100.28616561 -8.85546875 107.62890625 C-18.22588158 116.1535336 -30.67529692 120.26793759 -42.5 124.125 C-40.52 125.115 -38.54 126.105 -36.5 127.125 C-37.49 127.455 -38.48 127.785 -39.5 128.125 C-40.85617432 127.42141357 -40.85617432 127.42141357 -42.23974609 126.70361328 C-46.03286189 124.86698855 -48.47226037 124.79212844 -52.6640625 124.8671875 C-53.33738617 124.87380402 -54.01070984 124.88042053 -54.70443726 124.88723755 C-56.84510788 124.91046771 -58.98470762 124.95402944 -61.125 125 C-82.85363082 125.36405555 -82.85363082 125.36405555 -89.5 124.125 C-90.49 123.135 -90.49 123.135 -91.5 122.125 C-89.581875 121.75375 -89.581875 121.75375 -87.625 121.375 C-85.58304754 120.95973618 -83.54142766 120.54283607 -81.5 120.125 C-80.8723877 120.00141113 -80.24477539 119.87782227 -79.59814453 119.75048828 C-48.95989128 113.91859901 -48.95989128 113.91859901 -24.90234375 95.7265625 C-21.22800485 88.91010091 -20.15761609 82.32553989 -19.75 74.6875 C-19.08268001 65.63223199 -16.67169728 58.12912811 -13.05859375 49.84765625 C-9.88287641 42.5343238 -9.78371413 35.09713075 -11.1875 27.3125 C-13.1053442 22.65487836 -15.49957696 19.96313345 -20.17578125 18.00390625 C-23.98090013 16.99785249 -27.5336016 16.83067949 -31.4375 16.875 C-32.45360352 16.86339844 -32.45360352 16.86339844 -33.49023438 16.8515625 C-38.16180251 16.86947839 -42.07414081 17.68672193 -46.5 19.125 C-47.61117187 19.44597656 -48.72234375 19.76695312 -49.8671875 20.09765625 C-70.99549385 26.66201869 -88.62110502 38.87810084 -104.5 54.125 C-105.39074219 54.96417969 -106.28148437 55.80335938 -107.19921875 56.66796875 C-116.44849541 65.60764619 -123.89303826 75.57727494 -131.125 86.19921875 C-132.5 88.125 -132.5 88.125 -134.5 90.125 C-134.86087923 84.35845065 -133.7884104 80.32894541 -131.5 75.0625 C-131.18458252 74.32225586 -130.86916504 73.58201172 -130.54418945 72.81933594 C-123.27196921 56.15524611 -112.92187635 42.2976491 -100.5 29.125 C-99.87867188 28.45082031 -99.25734375 27.77664062 -98.6171875 27.08203125 C-77.77713888 5.23921879 -28.99352895 -20.7172914 0 0 Z " fill="#F07B99" transform="translate(404.5,137.875)"/>
<path d="M0 0 C2.68953435 2.16983589 5.27058426 4.41533624 7.83203125 6.734375 C8.66992188 7.45367187 9.5078125 8.17296875 10.37109375 8.9140625 C29.41233606 25.4793538 44.99535412 47.57579102 52.83203125 71.734375 C52.51953125 74.734375 52.51953125 74.734375 51.83203125 76.734375 C48.91165435 73.11550249 46.08028124 69.43882309 43.26953125 65.734375 C23.02507939 39.31885052 -0.39311024 18.08557546 -32.16796875 6.734375 C-33.12832031 6.37472656 -34.08867187 6.01507813 -35.078125 5.64453125 C-40.66556425 3.81576154 -46.08218682 3.44390618 -51.91796875 3.359375 C-52.98241211 3.33822632 -52.98241211 3.33822632 -54.06835938 3.31665039 C-59.1222663 3.3634239 -62.67756399 4.38839047 -67.16796875 6.734375 C-72.49154862 12.47823749 -72.58607449 17.04004644 -72.453125 24.640625 C-72.08890447 32.44482772 -69.18004678 39.51483538 -65.98046875 46.546875 C-64.15754788 50.88514405 -63.7966843 55.01878271 -63.60546875 59.671875 C-63.07705436 72.2220827 -60.52061246 80.49950819 -51.4609375 89.4140625 C-36.35456226 102.11789876 -11.06512435 105.64802007 7.83203125 108.734375 C2.30203965 112.42103607 -4.385968 111.89294061 -10.83984375 111.90234375 C-11.64407776 111.90567215 -12.44831177 111.90900055 -13.2769165 111.91242981 C-14.96439038 111.91746243 -16.65187409 111.91983928 -18.33935547 111.91967773 C-20.92431723 111.92188041 -23.50886264 111.94011837 -26.09375 111.95898438 C-27.7382798 111.96191582 -29.38281161 111.96390228 -31.02734375 111.96484375 C-31.79923035 111.97202927 -32.57111694 111.97921478 -33.36639404 111.98661804 C-37.17390764 111.97030165 -38.92163425 111.898598 -42.16796875 109.734375 C-44.48966633 108.94909494 -46.82523592 108.2044773 -49.16796875 107.484375 C-62.23919436 103.29097299 -73.61439412 97.2908037 -80.16796875 84.734375 C-82.88399388 78.35481861 -83.45320154 72.79031102 -83.41796875 65.921875 C-83.62419194 55.32030002 -86.52784593 46.64560567 -90.35498047 36.85693359 C-94.74779424 25.38812792 -97.06924951 9.49273606 -92.16796875 -2.265625 C-88.09081153 -9.49453204 -81.2937055 -15.97375053 -73.16796875 -18.265625 C-47.66713324 -22.44355315 -20.90157476 -14.94810526 0 0 Z " fill="#F17B9A" transform="translate(190.16796875,151.265625)"/>
<path d="M0 0 C0.33 0 0.66 0 1 0 C2.0182091 8.04559367 2.14569675 16.00323206 2.1328125 24.10546875 C2.13348962 25.47422808 2.134463 26.84298729 2.13571167 28.21174622 C2.13717993 31.08201237 2.13506927 33.95224728 2.13037109 36.82250977 C2.12478669 40.39852432 2.12797462 43.97446251 2.13382339 47.55047417 C2.16062143 67.0586138 1.71684265 86.50301784 1 106 C13.54 105.67 26.08 105.34 39 105 C39 149.88 39 194.76 39 241 C13.46428571 241 13.46428571 241 2 240 C0.17623009 212.43369018 -0.27728531 184.97810056 -0.20278788 157.35735369 C-0.19002235 151.79751651 -0.18909021 146.2376755 -0.18673706 140.67782593 C-0.18059627 130.21719398 -0.16428918 119.75660538 -0.14403808 109.29599226 C-0.12144417 97.35822216 -0.11062748 85.42044965 -0.10064721 73.48266339 C-0.07991352 48.98841852 -0.04488671 24.49421172 0 0 Z " fill="#F6803B" transform="translate(450,113)"/>
<path d="M0 0 C0.66918457 0.25700684 1.33836914 0.51401367 2.02783203 0.77880859 C12.13900801 4.7239836 21.07562944 9.85055091 30 16 C28.59645195 19.31813154 27.01783631 20.99574817 24.1875 23.1875 C16.18189133 30.00171137 13.53733619 38.3776945 12.7109375 48.5625 C12.01934926 62.74358748 15.74703547 77.7930199 25.31640625 88.62109375 C26.92084945 90.35108023 28.54948615 92.05910424 30.20703125 93.73828125 C32 96 32 96 32 100 C13.5912762 100.25618502 -11.3644262 93.62961164 -25.5625 81.6875 C-33.51607121 73.90370946 -36.8300726 65.46104928 -37.23291016 54.44384766 C-37.60875701 44.67413527 -40.16066783 36.68078158 -43.99609375 27.65625 C-46.67094319 20.79634905 -47.01352058 13.2542536 -46 6 C-43.43973373 1.46742005 -40.4468065 -2.80006035 -35.328125 -4.58203125 C-22.88668499 -6.81564548 -11.56219585 -4.54158293 0 0 Z " fill="#17785A" transform="translate(163,159)"/>
<path d="M0 0 C3.50849574 2.47043164 5.30165184 4.7606066 6.453125 8.88671875 C7.17977299 18.51480461 6.39427879 26.0975776 2.4609375 35.015625 C-0.49349716 41.85977394 -1.78194047 47.95680944 -2.359375 55.32421875 C-3.18854736 65.6609776 -4.67999726 74.5923035 -12.125 82.35546875 C-25.65080037 93.83780288 -49.30585 101.47621905 -67.109375 101.26171875 C-68.57310547 101.24818359 -68.57310547 101.24818359 -70.06640625 101.234375 C-70.80246094 101.22277344 -71.53851563 101.21117187 -72.296875 101.19921875 C-70.95637902 98.15681855 -69.5301513 96.32356792 -67.046875 94.13671875 C-56.43307079 83.78770799 -52.2293842 68.28973684 -52.046875 53.88671875 C-52.15659353 42.75028746 -54.9346698 33.63826218 -62.9140625 25.5625 C-65.30685998 23.48517084 -67.27600401 22.20617575 -70.296875 21.19921875 C-68.81174329 16.73372067 -65.34979893 15.04360551 -61.484375 12.82421875 C-60.81510986 12.43282715 -60.14584473 12.04143555 -59.45629883 11.63818359 C-50.14308537 6.2776648 -40.69393192 1.95830829 -30.296875 -0.80078125 C-28.66492188 -1.32285156 -28.66492188 -1.32285156 -27 -1.85546875 C-18.43761514 -4.04122522 -7.91112995 -4.30280923 0 0 Z " fill="#17785A" transform="translate(388.296875,156.80078125)"/>
<path d="M0 0 C43.23 0 86.46 0 131 0 C131 0.33 131 0.66 131 1 C128.69 1 126.38 1 124 1 C124.33 15.19 124.66 29.38 125 44 C109.49 44 93.98 44 78 44 C78 43.34 78 42.68 78 42 C77.39739349 42.00222061 76.79478699 42.00444122 76.17391968 42.00672913 C69.77985236 42.02922203 63.38579664 42.04408536 56.99169922 42.05493164 C54.61994977 42.0598948 52.24820327 42.0666675 49.87646484 42.07543945 C34.55152939 42.13061182 19.30200088 41.8606769 4 41 C3.98052307 40.34390244 3.96104614 39.68780487 3.940979 39.01182556 C3.6099643 28.07311756 3.12874273 17.57694271 0.62109375 6.8984375 C0 4 0 4 0 0 Z " fill="#F06885" transform="translate(144,21)"/>
<path d="M0 0 C8.66951812 4.81639895 13.37070622 12.33933146 16.6875 21.5 C18.62593611 30.71218686 18.1223843 40.89497818 15.375 49.875 C15.11847656 50.81859375 14.86195313 51.7621875 14.59765625 52.734375 C11.61132078 62.83408464 6.42420532 70.34928383 -1.2421875 77.5 C-2.74391854 78.84707543 -2.74391854 78.84707543 -3.625 80.875 C-1.315 80.875 0.995 80.875 3.375 80.875 C3.375 81.205 3.375 81.535 3.375 81.875 C-15.40098298 84.3934552 -29.91825993 84.35675187 -47.625 76.875 C-47.963329 73.66717315 -48.29476146 70.45866902 -48.625 67.25 C-48.72039062 66.34636719 -48.81578125 65.44273437 -48.9140625 64.51171875 C-50.18907367 52.03482374 -48.03942361 46.73384653 -40.1796875 36.77734375 C-37.71321459 33.76445515 -35.17361026 30.81858248 -32.625 27.875 C-31.76455078 26.84632813 -31.76455078 26.84632813 -30.88671875 25.796875 C-8.78948318 -0.30308563 -8.78948318 -0.30308563 0 0 Z " fill="#3B8E59" transform="translate(319.625,177.125)"/>
<path d="M0 0 C1.72945653 0.14235457 3.45855654 0.28904382 5.1875 0.4375 C6.63189453 0.55931641 6.63189453 0.55931641 8.10546875 0.68359375 C11 1 11 1 13.39453125 1.50390625 C16.75966662 2.14464417 20.08077782 2.30852356 23.5 2.5 C27.77667392 2.73949374 31.81388882 3.11247257 36 4 C36.63004298 34.00199824 37.19455544 63.99057102 37 94 C36.1445459 93.86287598 35.2890918 93.72575195 34.40771484 93.58447266 C26.12712146 92.32002661 17.99376551 91.61582778 9.625 91.375 C8.49578125 91.33632812 7.3665625 91.29765625 6.203125 91.2578125 C3.46889532 91.16512675 0.73464659 91.07923711 -2 91 C-2.33 92.32 -2.66 93.64 -3 95 C-2.96970703 93.80028564 -2.93941406 92.60057129 -2.90820312 91.36450195 C-2.76646199 85.68063237 -2.63178235 79.99660866 -2.5 74.3125 C-2.47599121 73.27967896 -2.45198242 72.24685791 -2.42724609 71.18273926 C-2.06661412 55.35357169 -1.90425801 39.53716533 -2.03710938 23.7043457 C-2.17135765 4.34271531 -2.17135765 4.34271531 0 0 Z " fill="#8C73AA" transform="translate(24,132)"/>
<path d="M0 0 C30.2919708 0 30.2919708 0 38 2 C39 3 39 3 39.03759766 6.12231445 C39.00170253 7.53611407 38.96003347 8.94977339 38.9140625 10.36328125 C38.89314041 11.13084747 38.87221832 11.8984137 38.85066223 12.6892395 C38.78024571 15.23048735 38.70262348 17.77146292 38.625 20.3125 C38.57512687 22.06452104 38.52573385 23.81655581 38.47680664 25.56860352 C38.37443439 29.20695177 38.26918181 32.84519993 38.16162109 36.48339844 C38.00320101 41.85593643 37.85376746 47.22869411 37.70703125 52.6015625 C37.475438 61.06782619 37.23933652 69.53395154 37 78 C36.05157227 77.96970703 35.10314453 77.93941406 34.12597656 77.90820312 C30.59995058 77.79588179 27.07390758 77.68412697 23.54785156 77.57275391 C22.02310479 77.52447782 20.49836511 77.47597735 18.97363281 77.42724609 C16.77931524 77.35715381 14.58497326 77.2878742 12.390625 77.21875 C11.7113092 77.19687622 11.03199341 77.17500244 10.33209229 77.15246582 C7.21840673 77.05511724 4.11583496 77 1 77 C1 80.96 1 84.92 1 89 C0.67 89 0.34 89 0 89 C0 59.63 0 30.26 0 0 Z " fill="#1877A5" transform="translate(22,223)"/>
<path d="M0 0 C-1.53610648 3.41269017 -3.57732552 6.11887552 -5.875 9.0625 C-15.06671953 21.5405512 -16.69629836 36.48950384 -14.64990234 51.58203125 C-12.2586197 65.57220059 -7.54792326 78.44003559 1.78125 89.31640625 C4 92 4 92 4 94 C-8.27572722 92.62736468 -18.85427221 87.33590054 -27 78 C-32.05252125 70.97663713 -33.92012121 63.99831036 -34.23291016 55.44384766 C-34.60875701 45.67413527 -37.16066783 37.68078158 -40.99609375 28.65625 C-43.67094319 21.79634905 -44.01352058 14.2542536 -43 7 C-40.43850606 2.46524663 -37.44956393 -1.78250685 -32.33984375 -3.5859375 C-21.14258566 -5.56742224 -10.50205687 -4.09123607 0 0 Z " fill="#1B7BB5" transform="translate(160,158)"/>
<path d="M0 0 C4.87845739 4.63453452 5.00925033 9.34004 5.25 15.75 C5.16279148 22.2518798 3.36956652 27.89478785 0.7578125 33.81640625 C-2.19662216 40.66055519 -3.48506547 46.75759069 -4.0625 54.125 C-4.89167236 64.46175885 -6.38312226 73.39308475 -13.828125 81.15625 C-21.11006291 87.33803902 -32.17606657 94 -42 94 C-40.46341964 90.64604287 -38.47449512 87.8567693 -36.3125 84.875 C-24.7504079 67.68981392 -20.05384806 46.57210469 -23.6875 26.1328125 C-26.53335273 16.05375076 -32.12134385 8.69754379 -39 1 C-37.79731319 0.34371151 -36.58747446 -0.29947505 -35.375 -0.9375 C-34.70210938 -1.29714844 -34.02921875 -1.65679687 -33.3359375 -2.02734375 C-23.84575428 -5.97894178 -8.54152034 -6.01432739 0 0 Z " fill="#1A7BB5" transform="translate(390,158)"/>
<path d="M0 0 C3.56024087 1.27631276 5.45730568 2.34876682 7.875 5.25 C9.33017877 8.80710366 9.46888682 11.18192158 9 15 C7.28965523 18.35734344 5.97708737 20.40289105 2.75 22.375 C-1.62743601 23.36987182 -5.7766181 24.24586055 -9.8125 21.984375 C-12.50262842 19.83744559 -13.90425619 18.28723142 -15 15 C-15.67195988 8.16840786 -15.67195988 8.16840786 -13.953125 5.1796875 C-9.76271132 0.07724261 -6.41623537 -0.65715632 0 0 Z " fill="#ED7C97" transform="translate(204,287)"/>
<path d="M0 0 C3.47060168 2.06759249 5.77725393 4.10944433 7 8 C7.45295055 12.98245604 7.1745053 16.05923481 4 20 C0.54055057 22.86640096 -2.50250242 23.53876644 -7.00390625 23.3515625 C-10.39677841 22.75399206 -12.45211152 21.24456842 -15 19 C-17.11052721 15.35454391 -17.43413048 12.16765265 -17 8 C-13.68105767 0.48870947 -7.70144323 -1.2719262 0 0 Z " fill="#ED7C99" transform="translate(316,287)"/>
<path d="M0 0 C1.30506458 2.61012916 1.11290405 4.49466281 1.09765625 7.41845703 C1.09276184 9.14595688 1.09276184 9.14595688 1.08776855 10.90835571 C1.07942993 12.17867645 1.07109131 13.44899719 1.0625 14.7578125 C1.05773015 16.10419526 1.05355344 17.45058023 1.04992676 18.79696655 C1.0415914 21.70604718 1.03086646 24.61510446 1.01831055 27.52416992 C0.9855368 35.38327216 0.97371099 43.24239795 0.96875 51.1015625 C0.96820114 51.91628777 0.96765228 52.73101303 0.96708679 53.57042694 C0.96072894 71.12117299 1.18738696 88.66610092 1.46416855 106.21434021 C1.57004871 112.96835121 1.67002709 119.72245495 1.76953125 126.4765625 C1.78534461 127.54970703 1.78534461 127.54970703 1.80147743 128.64453125 C1.98392927 141.11752196 2.13785222 153.59031496 2.17724609 166.06469727 C2.18390037 167.88844442 2.19395228 169.71218354 2.20800781 171.53588867 C2.31959992 186.86071542 1.84916885 202.32318228 -3 217 C-3.33 217 -3.66 217 -4 217 C-3.31948972 211.2156626 -2.452692 205.48029863 -1.5 199.734375 C-0.05395476 188.9342246 0.15773532 178.23104104 0.13037109 167.35375977 C0.12498783 164.80674347 0.13035917 162.25990175 0.13671875 159.71289062 C0.13605821 158.06510378 0.13477756 156.41731705 0.1328125 154.76953125 C0.13483673 154.02242386 0.13686096 153.27531647 0.13894653 152.50556946 C0.12319401 148.90058115 -0.03263875 145.38860164 -0.47167969 141.80932617 C-3.92798303 112.97273881 -1.99090025 83.00663585 -1.66339111 54.04547119 C-1.61147202 49.25067284 -1.56831426 44.45581026 -1.52509499 39.66092682 C-1.48247138 35.03546093 -1.4350234 30.41005479 -1.38599777 25.78465271 C-1.36310826 23.5805346 -1.34159789 21.37640172 -1.32149124 19.17225647 C-1.29290538 16.12973477 -1.25797172 13.08735401 -1.22119141 10.04492188 C-1.2138649 9.13723557 -1.20653839 8.22954926 -1.19898987 7.2943573 C-1.11435938 1.11435938 -1.11435938 1.11435938 0 0 Z " fill="#ECAC71" transform="translate(490,217)"/>
<path d="M0 0 C0.77214844 0.00902344 1.54429687 0.01804687 2.33984375 0.02734375 C2.90832031 0.03894531 3.47679687 0.05054688 4.0625 0.0625 C4.0625 0.3925 4.0625 0.7225 4.0625 1.0625 C3.01449219 1.19527344 1.96648437 1.32804687 0.88671875 1.46484375 C-0.49220778 1.64307235 -1.87111293 1.82146641 -3.25 2 C-4.28543945 2.13051758 -4.28543945 2.13051758 -5.34179688 2.26367188 C-8.33892288 2.65460135 -11.06200119 3.1040004 -13.9375 4.0625 C-15.60416667 4.0625 -17.27083333 4.0625 -18.9375 4.0625 C-19.55028809 4.22927246 -20.16307617 4.39604492 -20.79443359 4.56787109 C-23.23367826 5.13085921 -25.29013457 5.09826197 -27.7890625 4.9765625 C-29.19091797 4.91082031 -29.19091797 4.91082031 -30.62109375 4.84375 C-31.59175781 4.7921875 -32.56242187 4.740625 -33.5625 4.6875 C-34.50996094 4.64367187 -35.45742188 4.59984375 -36.43359375 4.5546875 C-42.62556047 4.24974796 -48.77553272 3.74080451 -54.9375 3.0625 C-54.9375 2.7325 -54.9375 2.4025 -54.9375 2.0625 C-53.67156006 2.03744385 -52.40562012 2.0123877 -51.10131836 1.98657227 C-46.38426376 1.89207874 -41.66734207 1.79196198 -36.95043945 1.69018555 C-34.91271077 1.64699482 -32.87494959 1.60530922 -30.8371582 1.56518555 C-27.90045396 1.50709689 -24.96391091 1.44351552 -22.02734375 1.37890625 C-21.12290024 1.36219376 -20.21845673 1.34548126 -19.28660583 1.32826233 C-12.81384748 1.1782088 -6.45262308 -0.09927112 0 0 Z M-17.9375 4.0625 C-13.9375 5.0625 -13.9375 5.0625 -13.9375 5.0625 Z " fill="#D3C47E" transform="translate(395.9375,441.9375)"/>
<path d="M0 0 C1 2 1 2 0.1796875 4.9765625 C-2.25863154 11.79509538 -4.74952096 18.07915727 -9 24 C-9.66 24.99 -10.32 25.98 -11 27 C-10.43479188 21.52182902 -8.45276401 17.24860025 -6.0625 12.375 C-5.70220703 11.62476563 -5.34191406 10.87453125 -4.97070312 10.1015625 C-3.3427187 6.71967221 -1.68226544 3.3552031 0 0 Z " fill="#E4987E" transform="translate(236,327)"/>
<path d="M0 0 C2 3 2 3 1.875 4.9375 C0.74935744 7.59080033 -0.93868944 8.99931622 -3 11 C-3.7734375 12.3303125 -3.7734375 12.3303125 -4.5625 13.6875 C-6 16 -6 16 -9 17 C-7.60166859 12.93212682 -5.54602384 9.54799403 -3.21875 5.96484375 C-2.01571779 4.0253399 -0.98888894 2.05560709 0 0 Z " fill="#CF6442" transform="translate(240,296)"/>
<path d="M0 0 C0.33 0 0.66 0 1 0 C1.04898438 0.73605469 1.09796875 1.47210938 1.1484375 2.23046875 C1.22320312 3.20628906 1.29796875 4.18210937 1.375 5.1875 C1.44460937 6.15042969 1.51421875 7.11335938 1.5859375 8.10546875 C2.00968006 11.06766911 2.61501678 13.34780423 4 16 C4.99 16.33 5.98 16.66 7 17 C7.33 19.31 7.66 21.62 8 24 C3.28831102 19.67033986 0.18222477 16.31965986 -0.1796875 9.7265625 C-0.18673341 6.4783961 -0.13000647 3.24534681 0 0 Z " fill="#E9957E" transform="translate(115,307)"/>
<path d="M0 0 C0.66 0.99 1.32 1.98 2 3 C1.4225 3.474375 0.845 3.94875 0.25 4.4375 C-2.37107721 7.42261572 -3.5014187 10.28506277 -4.875 13.9765625 C-6.23234682 16.41790158 -7.43699532 17.00683569 -10 18 C-8.64737628 13.25869791 -6.66645646 9.67711421 -3.875 5.625 C-3.15054687 4.56539062 -2.42609375 3.50578125 -1.6796875 2.4140625 C-0.84824219 1.21910156 -0.84824219 1.21910156 0 0 Z " fill="#EE98AB" transform="translate(288,186)"/>
<path d="M0 0 C0.66 0.33 1.32 0.66 2 1 C0.56974806 2.65213589 -0.86945545 4.29652589 -2.3125 5.9375 C-3.11300781 6.85402344 -3.91351563 7.77054688 -4.73828125 8.71484375 C-7 11 -7 11 -10 12 C-10 12.66 -10 13.32 -10 14 C-10.66 14 -11.32 14 -12 14 C-10.4722133 10.56247993 -8.49818944 7.81046312 -6 5 C-5.34 5 -4.68 5 -4 5 C-4 4.34 -4 3.68 -4 3 C-2 1.375 -2 1.375 0 0 Z " fill="#444F5C" transform="translate(283,149)"/>
<path d="M0 0 C0.66 0.33 1.32 0.66 2 1 C1.67 1.99 1.34 2.98 1 4 C0.34 4 -0.32 4 -1 4 C-1.66 5.32 -2.32 6.64 -3 8 C-3.66 8 -4.32 8 -5 8 C-5.33 8.99 -5.66 9.98 -6 11 C-8.0625 12.1875 -8.0625 12.1875 -10 13 C-8.56501627 9.79111679 -6.78256013 7.42193016 -4.4375 4.8125 C-3.81746094 4.11769531 -3.19742188 3.42289062 -2.55859375 2.70703125 C-1.72141231 1.79011824 -0.8779528 0.8779528 0 0 Z " fill="#EF8D70" transform="translate(133,272)"/>
<path d="M0 0 C-1.28519565 2.86697492 -2.57129254 4.97607712 -5 7 C-5.66 7 -6.32 7 -7 7 C-7.2475 7.598125 -7.495 8.19625 -7.75 8.8125 C-9.16370012 11.28647521 -10.65055383 12.43370255 -13 14 C-11.6145759 9.76090342 -9.67287988 7.29341975 -6.5 4.1875 C-5.7059375 3.39730469 -4.911875 2.60710937 -4.09375 1.79296875 C-2 0 -2 0 0 0 Z " fill="#588450" transform="translate(178,273)"/>
<path d="M0 0 C0.33 0.66 0.66 1.32 1 2 C-0.29296875 4.8984375 -0.29296875 4.8984375 -2.1875 8.375 C-2.79980469 9.51710938 -3.41210938 10.65921875 -4.04296875 11.8359375 C-5.8083554 14.69015544 -7.51955775 16.76705199 -10 19 C-8.90175679 15.97983116 -7.60716375 13.29467705 -5.9375 10.5625 C-4.08696562 7.42553465 -3.35665318 4.65569509 -3 1 C-2.01 0.67 -1.02 0.34 0 0 Z " fill="#F0D38F" transform="translate(483,440)"/>
<path d="M0 0 C4.29 0.66 8.58 1.32 13 2 C9.79619983 4.13586678 8.98060033 4.23132175 5.3125 4.125 C4.50425781 4.10695313 3.69601563 4.08890625 2.86328125 4.0703125 C1.94095703 4.03550781 1.94095703 4.03550781 1 4 C0.67 2.68 0.34 1.36 0 0 Z " fill="#ED8391" transform="translate(185,258)"/>
<path d="M0 0 C0.92027197 3.47907695 1.36932981 6.38056785 1 10 C-1 12.875 -1 12.875 -3 15 C-3.36263859 9.1977825 -2.25684543 5.36000789 0 0 Z " fill="#E891A2" transform="translate(273,213)"/>
<path d="M0 0 C-3.19990508 2.74277578 -6.00499382 4.6302836 -10 6 C-10.33 4.35 -10.66 2.7 -11 1 C-7.27569643 0.30710631 -3.78916254 -0.11144596 0 0 Z " fill="#E4613D" transform="translate(193,262)"/>
<path d="M0 0 C0.33 0.66 0.66 1.32 1 2 C0.0625 4.125 0.0625 4.125 -1 6 C-1.66 6 -2.32 6 -3 6 C-3.33 6.66 -3.66 7.32 -4 8 C-5.8125 9 -5.8125 9 -8 10 C-9.33479424 10.66373681 -10.66834591 11.32998536 -12 12 C-8.32167983 7.47384007 -4.58913637 3.60575001 0 0 Z " fill="#EB92A9" transform="translate(318,154)"/>
<path d="M0 0 C0 0.33 0 0.66 0 1 C-2.31 1 -4.62 1 -7 1 C-7 1.66 -7 2.32 -7 3 C-8.63260714 4.37482707 -10.30225062 5.70647667 -12 7 C-12.66 7.66 -13.32 8.32 -14 9 C-13.71827807 5.83062828 -13.51665615 3.64582019 -11.5 1.125 C-7.72592959 -0.57333168 -4.07515329 -0.235105 0 0 Z " fill="#485361" transform="translate(218,136)"/>
<path d="M0 0 C0.66 0.33 1.32 0.66 2 1 C-1.88309282 4.64775386 -4.71201818 5.58525633 -10 6 C-7.31100548 2.67830089 -3.94687492 1.43522725 0 0 Z " fill="#E9896A" transform="translate(149,263)"/>
<path d="M0 0 C2.85749268 2.85749268 3.99035622 6.11732577 5 10 C4.6875 13 4.6875 13 4 15 C2.5 13.875 2.5 13.875 1 12 C0.875 9.1875 0.875 9.1875 1 6 C0.70285977 3.99430341 0.37938617 1.99177741 0 0 Z " fill="#E097A7" transform="translate(238,213)"/>
<path d="M0 0 C0.33 0.66 0.66 1.32 1 2 C0.401875 2.721875 -0.19625 3.44375 -0.8125 4.1875 C-3.01961681 6.8955974 -3.01961681 6.8955974 -4.5625 9.6875 C-6 12 -6 12 -9 14 C-7.65070536 10.16336928 -5.92248975 7.34827431 -3.375 4.1875 C-2.42753906 3.00220703 -2.42753906 3.00220703 -1.4609375 1.79296875 C-0.97882813 1.20128906 -0.49671875 0.60960937 0 0 Z " fill="#528662" transform="translate(282,211)"/>
<path d="M0 0 C1 1 2 2 3 3 C4.051875 3.8971875 4.051875 3.8971875 5.125 4.8125 C7.43619351 7.50889243 7.68311115 9.51422263 8 13 C4.3260401 9.62392874 1.94593446 6.60879214 0 2 C0 1.34 0 0.68 0 0 Z " fill="#93C4D7" transform="translate(29,442)"/>
<path d="M0 0 C2.90025094 1.45012547 3.08706855 3.31312909 4.1875 6.3125 C4.55230469 7.27800781 4.91710937 8.24351562 5.29296875 9.23828125 C6.008904 12.0347797 5.99249531 13.33859538 5 16 C2.38592128 10.63809899 0.50771472 5.96564796 0 0 Z " fill="#E28970" transform="translate(388,284)"/>
<path d="M0 0 C1.22589844 0.15275391 1.22589844 0.15275391 2.4765625 0.30859375 C3.41628906 0.43427734 3.41628906 0.43427734 4.375 0.5625 C4.375 1.2225 4.375 1.8825 4.375 2.5625 C2.91707116 2.61649736 1.45857288 2.65529177 0 2.6875 C-0.81210937 2.71070313 -1.62421875 2.73390625 -2.4609375 2.7578125 C-4.625 2.5625 -4.625 2.5625 -6.625 0.5625 C-4.10446405 -0.69776798 -2.7707902 -0.35624445 0 0 Z " fill="#D48087" transform="translate(319.625,259.4375)"/>
<path d="M0 0 C0.33 0.66 0.66 1.32 1 2 C-0.5039544 4.79305817 -2.24016054 7.36024081 -4 10 C-4.99 9.67 -5.98 9.34 -7 9 C-4.69 6.03 -2.38 3.06 0 0 Z " fill="#EB91A6" transform="translate(296,176)"/>
<path d="M0 0 C5.29158974 1.40071493 7.77478044 4.85487245 11 9 C10.67 9.66 10.34 10.32 10 11 C8 10 8 10 6.6875 7.625 C4.78856181 4.67109615 3.00557094 3.70586459 0 2 C0 1.34 0 0.68 0 0 Z " fill="#E798A9" transform="translate(401,137)"/>
<path d="M0 0 C2.31 0.33 4.62 0.66 7 1 C7.33 2.98 7.66 4.96 8 7 C4.46399535 5.08864614 2.21027154 3.37357234 0 0 Z " fill="#5DA197" transform="translate(48,467)"/>
<path d="M0 0 C0.33 0.99 0.66 1.98 1 3 C-5.75 2.25 -5.75 2.25 -8 0 C-4.71023192 -1.09658936 -3.28696233 -0.79953138 0 0 Z " fill="#3A7BA9" transform="translate(163,249)"/>
<path d="M0 0 C0.33 0.66 0.66 1.32 1 2 C-0.98 4.97 -0.98 4.97 -3 8 C-2.67 8.66 -2.34 9.32 -2 10 C-3.65 10.33 -5.3 10.66 -7 11 C-5.22054913 6.95579349 -2.60470327 3.53921513 0 0 Z " fill="#2477A0" transform="translate(355,241)"/>
<path d="M0 0 C0.99 0.33 1.98 0.66 3 1 C3.6875 3.0625 3.6875 3.0625 4 5 C2.68 5.99 1.36 6.98 0 8 C0 5.36 0 2.72 0 0 Z " fill="#C35941" transform="translate(270,297)"/>
<path d="M0 0 C2.21278369 3.31917554 2.45258857 5.08416361 2.8125 9 C2.92207031 10.051875 3.03164063 11.10375 3.14453125 12.1875 C3 15 3 15 0 18 C0 12.06 0 6.12 0 0 Z " fill="#BE84A7" transform="translate(394,165)"/>
<path d="M0 0 C0 3.77910478 -0.99703962 4.46106101 -3.5 7.1875 C-4.47453125 8.26064453 -4.47453125 8.26064453 -5.46875 9.35546875 C-5.9740625 9.89816406 -6.479375 10.44085938 -7 11 C-7 7.22089522 -6.00296038 6.53893899 -3.5 3.8125 C-2.8503125 3.09707031 -2.200625 2.38164062 -1.53125 1.64453125 C-1.0259375 1.10183594 -0.520625 0.55914062 0 0 Z " fill="#157770" transform="translate(160,159)"/>
<path d="M0 0 C0 0.66 0 1.32 0 2 C-1.56215548 2.16986545 -3.1247452 2.33573964 -4.6875 2.5 C-5.99267578 2.63921875 -5.99267578 2.63921875 -7.32421875 2.78125 C-9.89723339 2.99159864 -12.41984364 3.03719144 -15 3 C-10.25420243 0.26203987 -5.40112241 -0.15885654 0 0 Z " fill="#CD8AAA" transform="translate(107,21)"/>
<path d="M0 0 C0.66 0.33 1.32 0.66 2 1 C0.71937515 2.7074998 -0.61767557 4.37373596 -2 6 C-2.66 6 -3.32 6 -4 6 C-4 6.99 -4 7.98 -4 9 C-4.66 9 -5.32 9 -6 9 C-4.68775452 5.06326356 -3.08089673 2.77280706 0 0 Z " fill="#3B78AD" transform="translate(124,156)"/>
<path d="M0 0 C0.33 0.99 0.66 1.98 1 3 C-0.98 4.98 -2.96 6.96 -5 9 C-5.66 8.67 -6.32 8.34 -7 8 C-5.71937515 6.2925002 -4.38232443 4.62626404 -3 3 C-2.34 3 -1.68 3 -1 3 C-0.67 2.01 -0.34 1.02 0 0 Z " fill="#D592B0" transform="translate(49,45)"/>
<path d="M0 0 C2.31 0 4.62 0 7 0 C6.67 1.32 6.34 2.64 6 4 C1.125 2.25 1.125 2.25 0 0 Z " fill="#E46246" transform="translate(320,262)"/>
<path d="M0 0 C2.52588702 2.36292656 3.88820837 3.66462511 5 7 C3.35 7.33 1.7 7.66 0 8 C0 5.36 0 2.72 0 0 Z " fill="#147BA7" transform="translate(156,241)"/>
<path d="M0 0 C0.66 0.33 1.32 0.66 2 1 C0.68 2.65 -0.64 4.3 -2 6 C-3.32 5.67 -4.64 5.34 -6 5 C-4.02 3.35 -2.04 1.7 0 0 Z " fill="#D38FB0" transform="translate(56,39)"/>
<path d="" fill="#EBFDFF" transform="translate(0,0)"/>
</svg>
